# xmcd
#
# Track frame offsets:
#	150
#	11917
#	26122
#	44482
#	57432
#
# Disc length: 983 seconds
#
# Revision: 1
# Processed by: cddbd v1.5.1PL0 Copyright (c) Steve Scherf et al.
# Submitted via: audiograbber 1.83.01
#
DISCID=4203d505
DTITLE=Burning Hearts - A hoarter Mann
DYEAR=1996
DGENRE=Country
TTITLE0=(Er is ) A hoarter Mann
TTITLE1=Is It Right Or Is It Wrong
TTITLE2=Like An Island In The Stream
TTITLE3=Dream Lover
TTITLE4=(Er is ) A hoarter Mann - Extended
EXTD=
EXTT0=
EXTT1=
EXTT2=
EXTT3=
EXTT4=
PLAYORDER=
